<svg xmlns="http://www.w3.org/2000/svg" xmlns:xlink="http://www.w3.org/1999/xlink" width="108" zoomAndPan="magnify" viewBox="0 0 81 80.999996" height="108" preserveAspectRatio="xMidYMid meet" version="1.0"><defs><clipPath id="35b810b255"><path d="M 24.167969 24.546875 L 57.152344 24.546875 L 57.152344 62.796875 L 24.167969 62.796875 Z M 24.167969 24.546875 " clip-rule="nonzero"/></clipPath></defs><g clip-path="url(#35b810b255)"><path fill="#5ea241" d="M 53.949219 27.722656 L 42.242188 27.722656 L 42.242188 33.511719 L 39.066406 33.511719 L 39.066406 24.546875 L 57.125 24.546875 L 57.125 46.34375 C 57.125 50.855469 55.25 54.988281 52.28125 57.984375 C 49.28125 60.953125 45.1875 62.796875 40.640625 62.796875 C 36.125 62.796875 31.992188 60.953125 28.992188 57.984375 C 26.023438 54.988281 24.179688 50.855469 24.179688 46.34375 L 24.179688 24.546875 L 33.125 24.546875 L 33.125 27.722656 L 27.355469 27.722656 L 27.355469 46.34375 C 27.355469 49.992188 28.839844 53.320312 31.25 55.730469 C 33.664062 58.136719 36.984375 59.621094 40.640625 59.621094 C 44.300781 59.621094 47.621094 58.136719 50.03125 55.730469 C 52.441406 53.320312 53.949219 50 53.949219 46.34375 Z M 33.117188 33.511719 L 33.117188 46.34375 C 33.117188 48.390625 33.984375 50.257812 35.347656 51.628906 C 36.707031 52.996094 38.582031 53.855469 40.632812 53.855469 C 42.683594 53.855469 44.582031 52.988281 45.921875 51.628906 C 47.292969 50.257812 48.148438 48.390625 48.148438 46.34375 L 48.148438 30.339844 L 51.324219 30.339844 L 51.324219 46.34375 C 51.324219 49.28125 50.109375 51.957031 48.179688 53.886719 C 46.25 55.8125 43.574219 57.007812 40.632812 57.007812 C 37.695312 57.007812 35.015625 55.820312 33.089844 53.886719 C 31.160156 51.949219 29.964844 49.28125 29.964844 46.34375 L 29.964844 30.339844 L 33.117188 30.339844 Z M 33.117188 33.511719 " fill-opacity="1" fill-rule="nonzero"/></g></svg>